<svg xmlns="http://www.w3.org/2000/svg" width="56" height="56" viewBox="0 0 56 56">
  <g fill="none" fill-rule="evenodd">
    <polygon fill="#32C1E5" fill-rule="nonzero" points="22.429 26.808 4.603 40.297 3.397 38.703 22.571 24.192 31.516 32.64 36.408 28.237 52.055 38.668 50.945 40.332 36.592 30.763 31.484 35.36"/>
    <path fill="#858582" fill-rule="nonzero" d="M7,12 L49,12 C51.209139,12 53,13.790861 53,16 L53,44 C53,46.209139 51.209139,48 49,48 L7,48 C4.790861,48 3,46.209139 3,44 L3,16 C3,13.790861 4.790861,12 7,12 Z M7,14 C5.8954305,14 5,14.8954305 5,16 L5,44 C5,45.1045695 5.8954305,46 7,46 L49,46 C50.1045695,46 51,45.1045695 51,44 L51,16 C51,14.8954305 50.1045695,14 49,14 L7,14 Z"/>
    <path fill="#FFD920" fill-rule="nonzero" d="M42,27 C39.2385763,27 37,24.7614237 37,22 C37,19.2385763 39.2385763,17 42,17 C44.7614237,17 47,19.2385763 47,22 C47,24.7614237 44.7614237,27 42,27 Z M42,25 C43.6568542,25 45,23.6568542 45,22 C45,20.3431458 43.6568542,19 42,19 C40.3431458,19 39,20.3431458 39,22 C39,23.6568542 40.3431458,25 42,25 Z"/>
    <path fill="#858582" fill-rule="nonzero" d="M15.5240974,13.8516583 L14.4759026,12.1483417 L26.9518051,4.47086318 C27.5946191,4.07528535 28.4053809,4.07528535 29.0481949,4.47086318 L41.5240974,12.1483417 L40.4759026,13.8516583 L28,6.17417981 L15.5240974,13.8516583 Z"/>
  </g>
</svg>
