<svg xmlns="http://www.w3.org/2000/svg" width="56" height="56" viewBox="0 0 56 56">
  <g fill="none" fill-rule="evenodd">
    <path fill="#858582" fill-rule="nonzero" d="M9,15 L18.381966,15 C18.7607381,15 19.1070012,14.7859976 19.2763932,14.4472136 L21.4472136,10.1055728 C21.7859976,9.42800475 22.4785239,9 23.236068,9 L32.763932,9 C33.5214761,9 34.2140024,9.42800475 34.5527864,10.1055728 L36.7236068,14.4472136 C36.8929988,14.7859976 37.2392619,15 37.618034,15 L47,15 C49.209139,15 51,16.790861 51,19 L51,43 C51,45.209139 49.209139,47 47,47 L9,47 C6.790861,47 5,45.209139 5,43 L5,19 C5,16.790861 6.790861,15 9,15 Z M9,17 C7.8954305,17 7,17.8954305 7,19 L7,43 C7,44.1045695 7.8954305,45 9,45 L47,45 C48.1045695,45 49,44.1045695 49,43 L49,19 C49,17.8954305 48.1045695,17 47,17 L37.618034,17 C36.4817178,17 35.4429285,16.3579929 34.9347524,15.3416408 L32.763932,11 L23.236068,11 L21.0652476,15.3416408 C20.5570715,16.3579929 19.5182822,17 18.381966,17 L9,17 Z"/>
    <rect width="42" height="2" x="7" y="20" fill="#FFD920"/>
    <rect width="7" height="2" x="10" y="11" fill="#FFD920" rx="1"/>
    <path fill="#32C1E5" fill-rule="nonzero" d="M28,41 C23.581722,41 20,37.418278 20,33 C20,28.581722 23.581722,25 28,25 C32.418278,25 36,28.581722 36,33 C36,37.418278 32.418278,41 28,41 Z M28,39 C31.3137085,39 34,36.3137085 34,33 C34,29.6862915 31.3137085,27 28,27 C24.6862915,27 22,29.6862915 22,33 C22,36.3137085 24.6862915,39 28,39 Z"/>
  </g>
</svg>
