<svg xmlns="http://www.w3.org/2000/svg" width="56" height="56" viewBox="0 0 56 56">
  <g fill="none" fill-rule="evenodd">
    <path fill="#858582" fill-rule="nonzero" d="M9.76511157,4 L26.2348871,3.99999852 C28.444027,3.99999852 30.2348886,5.79086018 30.2348886,8 C30.2348886,8.21056514 30.218262,8.42080156 30.1851639,8.62874912 C28.728388,17.7813155 28,27.9050658 28,39 L8,39 C8,27.9050662 7.27161209,17.7813163 5.81483628,8.62875019 C5.46758644,6.44707288 6.95468497,4.39697325 9.1363625,4.04972473 C9.34431005,4.01662658 9.55454645,4 9.76511157,4 Z M26.0079098,37 C26.0907388,26.5831187 26.8241282,17.0216326 28.2100262,8.31437468 C28.2265753,8.21040086 28.2348886,8.10528261 28.2348886,8 C28.2348886,6.89542968 27.3394575,5.99999852 26.2348873,5.99999852 L9.76511175,6 C9.65982897,6 9.55471074,6.00831329 9.45073693,6.02486237 C8.3598979,6.19848668 7.61634889,7.22353638 7.78997392,8.31437576 C9.17587184,17.0216333 9.90926116,26.5831192 9.99209018,37 L26.0079098,37 Z"/>
    <path fill="#32C1E5" fill-rule="nonzero" d="M8,41 L28,41 L28,48 C28,50.209139 26.209139,52 24,52 L12,52 C9.790861,52 8,50.209139 8,48 L8,41 Z M10,43 L10,48 C10,49.1045695 10.8954305,50 12,50 L24,50 C25.1045695,50 26,49.1045695 26,48 L26,43 L10,43 Z"/>
    <path fill="#32C1E5" fill-rule="nonzero" d="M14.9701425,51.2425356 L13.0298575,50.7574644 C13.7979109,47.6852507 15.4831616,46 18,46 C20.5168384,46 22.2020891,47.6852507 22.9701425,50.7574644 L21.0298575,51.2425356 C20.4645776,48.981416 19.4831616,48 18,48 C16.5168384,48 15.5354224,48.981416 14.9701425,51.2425356 Z"/>
    <path fill="#D84747" fill-rule="nonzero" d="M38.2572186,14.4971125 L44.2572186,12.0971125 C45.2827857,11.6868857 46.4467266,12.1857175 46.8569534,13.2112846 C46.9514496,13.4475251 47,13.6996271 47,13.9540659 L47,31 L37,31 L37,16.3540659 C37,15.5362567 37.4979019,14.8008392 38.2572186,14.4971125 Z M45,29 L45,13.9540659 L39,16.3540659 L39,29 L45,29 Z"/>
    <path fill="#858582" fill-rule="nonzero" d="M37,29 L47,29 C48.1045695,29 49,29.8954305 49,31 L49,48 C49,50.209139 47.209139,52 45,52 L39,52 C36.790861,52 35,50.209139 35,48 L35,31 C35,29.8954305 35.8954305,29 37,29 Z M37,31 L37,48 C37,49.1045695 37.8954305,50 39,50 L45,50 C46.1045695,50 47,49.1045695 47,48 L47,31 L37,31 Z"/>
  </g>
</svg>
