<svg xmlns="http://www.w3.org/2000/svg" width="56" height="56" viewBox="0 0 56 56">
  <g fill="none" fill-rule="evenodd">
    <path fill="#32C1E5" fill-rule="nonzero" d="M13,3 L43,3 C45.209139,3 47,4.790861 47,7 L47,41 C47,47.627417 41.627417,53 35,53 L13,53 C10.790861,53 9,51.209139 9,49 L9,7 C9,4.790861 10.790861,3 13,3 Z M13,5 C11.8954305,5 11,5.8954305 11,7 L11,49 C11,50.1045695 11.8954305,51 13,51 L35,51 C40.5228475,51 45,46.5228475 45,41 L45,7 C45,5.8954305 44.1045695,5 43,5 L13,5 Z"/>
    <path fill="#858582" fill-rule="nonzero" d="M13,7 L43,7 L43,29 L13,29 L13,7 Z M15,9 L15,27 L41,27 L41,9 L15,9 Z"/>
    <path fill="#858582" d="M18,38 L18,36 C18,35.4477153 18.4477153,35 19,35 C19.5522847,35 20,35.4477153 20,36 L20,38 L22,38 C22.5522847,38 23,38.4477153 23,39 C23,39.5522847 22.5522847,40 22,40 L20,40 L20,42 C20,42.5522847 19.5522847,43 19,43 C18.4477153,43 18,42.5522847 18,42 L18,40 L16,40 C15.4477153,40 15,39.5522847 15,39 C15,38.4477153 15.4477153,38 16,38 L18,38 Z"/>
    <path fill="#D84747" fill-rule="nonzero" d="M38,40 C36.3431458,40 35,38.6568542 35,37 C35,35.3431458 36.3431458,34 38,34 C39.6568542,34 41,35.3431458 41,37 C41,38.6568542 39.6568542,40 38,40 Z M38,38 C38.5522847,38 39,37.5522847 39,37 C39,36.4477153 38.5522847,36 38,36 C37.4477153,36 37,36.4477153 37,37 C37,37.5522847 37.4477153,38 38,38 Z"/>
    <path fill="#858582" fill-rule="nonzero" d="M31,44 C29.3431458,44 28,42.6568542 28,41 C28,39.3431458 29.3431458,38 31,38 C32.6568542,38 34,39.3431458 34,41 C34,42.6568542 32.6568542,44 31,44 Z M31,42 C31.5522847,42 32,41.5522847 32,41 C32,40.4477153 31.5522847,40 31,40 C30.4477153,40 30,40.4477153 30,41 C30,41.5522847 30.4477153,42 31,42 Z"/>
  </g>
</svg>
