<svg xmlns="http://www.w3.org/2000/svg" width="56" height="56" viewBox="0 0 56 56">
  <g fill="none" fill-rule="evenodd">
    <path fill="#858582" fill-rule="nonzero" d="M14,7 L42,7 C44.209139,7 46,8.790861 46,11 L46,49 C46,51.209139 44.209139,53 42,53 L14,53 C11.790861,53 10,51.209139 10,49 L10,11 C10,8.790861 11.790861,7 14,7 Z M14,9 C12.8954305,9 12,9.8954305 12,11 L12,49 C12,50.1045695 12.8954305,51 14,51 L42,51 C43.1045695,51 44,50.1045695 44,49 L44,11 C44,9.8954305 43.1045695,9 42,9 L14,9 Z"/>
    <rect width="17" height="2" x="16" y="39" fill="#FFD920"/>
    <rect width="9" height="2" x="16" y="43" fill="#FFD920"/>
    <path fill="#D84747" d="M25.525,15.15 L25.525,28.5 L23.95,28.5 L23.95,27.465 L17.335,27.465 L17.335,28.515 L15.76,28.515 L15.76,15.15 L25.525,15.15 Z M17.335,25.935 L23.95,25.935 L23.95,21.9 L17.335,21.9 L17.335,25.935 Z M17.335,20.37 L23.95,20.37 L23.95,16.68 L17.335,16.68 L17.335,20.37 Z M27.555,17.265 L33.255,17.265 L33.255,14.715 L34.845,14.715 L34.845,17.265 L40.53,17.265 L40.53,18.78 L36.015,18.78 C37.005,20.985 38.685,22.95 41.055,24.675 L39.99,26.025 C37.545,23.88 35.835,21.48 34.845,18.825 L34.845,24.15 L37.89,24.15 L37.89,25.665 L34.845,25.665 L34.845,28.575 L33.255,28.575 L33.255,25.665 L30.33,25.665 L30.33,24.15 L33.255,24.15 L33.255,18.825 C32.175,21.84 30.405,24.3 27.915,26.22 L27,24.75 C29.31,23.19 30.99,21.195 32.07,18.78 L27.555,18.78 L27.555,17.265 Z"/>
    <path fill="#858582" fill-rule="nonzero" d="M14.2614155,8.96522637 L13.7385845,7.03477363 L35.2157536,1.21804034 C36.814993,0.784913002 38.4625518,1.73023362 38.8956791,3.32947303 C38.9649214,3.5851369 39,3.84884494 39,4.11371946 L39,8 L37,8 L37,4.11371946 C37,4.02542795 36.9883071,3.93752527 36.9652264,3.85230398 C36.8208506,3.31922418 36.2716643,3.00411731 35.7385845,3.14849309 L14.2614155,8.96522637 Z"/>
  </g>
</svg>
