<svg xmlns="http://www.w3.org/2000/svg" width="56" height="56" viewBox="0 0 56 56">
  <g fill="none" fill-rule="evenodd">
    <ellipse cx="28" cy="33.5" fill="#858582" rx="2" ry="1.5"/>
    <path fill="#D84747" fill-rule="nonzero" d="M40.1487158 46.4602032C40.2871989 46.5649061 40.4712673 46.6972694 40.6685598 46.8341468 40.8587268 46.9660807 41.048244 47.0932121 41.1967581 47.1886471 41.2587371 47.2284748 41.3099635 47.2604416 41.3452329 47.2815346 41.3144258 47.2645042 41.2832972 47.2501119 41.1977967 47.2165433L40.4668851 49.0782007C40.2608113 48.9972934 38.7947799 47.9949085 38.5943877 47.7643837 36.601565 45.4719034 37.1823805 41.7042514 39.8916753 39.3490973 42.6009702 36.9939432 46.4127896 36.9431361 48.4056123 39.2356163 48.5454134 39.3964391 49.0351042 40.1496771 49.1343033 40.3660645L47.3162422 41.1995234C47.2999942 41.164081 46.9162907 40.570854 46.8961931 40.5477344 45.6811383 39.1499738 43.1301322 39.1839757 41.2037934 40.8585165 39.2777085 42.5328365 38.8888546 45.0538405 40.1033266 46.451713 40.0263869 46.3631235 40.0871632 46.4136651 40.1487158 46.4602032zM15.4863778 49.0962853C15.6932595 49.0174006 17.0257857 48.2013242 17.4056123 47.7643837 19.398435 45.4719034 18.8176195 41.7042514 16.1083247 39.3490973 13.3990298 36.9939432 9.58721041 36.9431361 7.59438773 39.2356163 7.27093997 39.6077004 7.01529046 40.0186454 6.82553583 40.4561047L8.66035781 41.2519868C8.77183511 40.9949876 8.9196999 40.7595252 9.10380689 40.5477344 10.3188617 39.1499738 12.8698678 39.1839757 14.7962066 40.8585165 16.7225454 42.5330572 17.1112479 45.054505 15.8961931 46.4522656 15.8829088 46.4675475 15.6072246 46.6788763 15.2788072 46.8958152 15.113649 47.0049118 14.9442023 47.110931 14.8033789 47.1940661 14.7451439 47.228445 14.6816817 47.2626587 14.7738141 47.2275282L15.4863778 49.0962853z"/>
    <path fill="#858582" fill-rule="nonzero" d="M18.5 32C16.5670034 32 15 30.209139 15 28 15 25.790861 16.5670034 24 18.5 24 20.4329966 24 22 25.790861 22 28 22 30.209139 20.4329966 32 18.5 32zM18.5 30C19.2646147 30 20 29.1595596 20 28 20 26.8404404 19.2646147 26 18.5 26 17.7353853 26 17 26.8404404 17 28 17 29.1595596 17.7353853 30 18.5 30zM37.5 32C35.5670034 32 34 30.209139 34 28 34 25.790861 35.5670034 24 37.5 24 39.4329966 24 41 25.790861 41 28 41 30.209139 39.4329966 32 37.5 32zM37.5 30C38.2646147 30 39 29.1595596 39 28 39 26.8404404 38.2646147 26 37.5 26 36.7353853 26 36 26.8404404 36 28 36 29.1595596 36.7353853 30 37.5 30z"/>
    <path fill="#FFD920" fill-rule="nonzero" d="M28,53 C17,53 5,45.5 5,34 C5,23.5065898 15.5,15 28,15 C40.5,15 51,23.5065898 51,34 C51,45.5 39,53 28,53 Z M28,51 C39.0446082,51 49,43.4623462 49,34 C49,24.7652296 39.5428047,17 28,17 C16.4571953,17 7,24.7652296 7,34 C7,43.4623462 16.9553918,51 28,51 Z"/>
    <path fill="#FFD920" fill-rule="nonzero" d="M11.0541717 22.0441071L9.511419 23.3168656C4.3679127 17.0822515 2.64817321 5.53270077 5.4452998 3.66794971 8.32483127 1.74826206 16.6015419 8.03067465 21.0260075 16.8013087L19.2403527 17.7021065C17.0415906 13.3434926 14.1558942 9.87491666 11.1302107 7.57828061 9.91032538 6.6523303 8.73810644 5.97971737 7.77163632 5.619837 7.05970681 5.35473883 6.5798668 5.31527256 6.5547002 5.33205029 6.24484066 5.53862332 5.98199604 8.22259822 6.42176914 11.1760582 7.01219075 15.1412543 8.57590876 19.0401227 11.0541717 22.0441071zM36.8350255 17.5535586L35.0536532 16.6443212C39.4839888 7.96443605 47.6965661 1.76252694 50.5547002 3.66794971 53.3562176 5.535628 51.6283964 17.1049563 46.4703628 23.3389162L44.92944 22.0639429C47.4149088 19.0600244 48.9836141 15.1575713 49.576712 11.1862436 50.0184216 8.22859775 49.7559018 5.53911827 49.4452998 5.33205029 49.4210549 5.31588703 48.9469373 5.35392305 48.2418673 5.61482441 47.2841065 5.96923054 46.1213131 6.63308735 44.9097726 7.54800885 41.907103 9.81554117 39.0346338 13.2441001 36.8350255 17.5535586z"/>
    <path fill="#858582" fill-rule="nonzero" d="M30,39.5 L32,39.5 C32,41.9852814 31,46 28,46 C25,46 24,41.9852814 24,39.5 L26,39.5 C26,41.9717741 26.9644699,44 28,44 C29.0355301,44 30,41.9717741 30,39.5 Z"/>
    <path fill="#858582" fill-rule="nonzero" d="M21.5038611,38.8682431 C21.0243436,38.5942332 20.8577469,37.9833785 21.1317569,37.5038611 C21.4057668,37.0243436 22.0166215,36.8577469 22.4961389,37.1317569 C23.524639,37.7194712 24.3662255,38 25,38 C25.3535523,38 25.7730866,37.869236 26.355453,37.5951813 C26.4424047,37.5542629 26.9461328,37.3075389 27.0835862,37.2452958 C27.4427891,37.0826379 27.6980812,37 28,37 C28.3019188,37 28.5572109,37.0826379 28.9164138,37.2452958 C29.0538672,37.3075389 29.5575953,37.5542629 29.644547,37.5951813 C30.2269134,37.869236 30.6464477,38 31,38 C31.6337745,38 32.475361,37.7194712 33.5038611,37.1317569 C33.9833785,36.8577469 34.5942332,37.0243436 34.8682431,37.5038611 C35.1422531,37.9833785 34.9756564,38.5942332 34.4961389,38.8682431 C33.1913056,39.6138622 32.0328922,40 31,40 C30.2806356,40 29.6204424,39.7942255 28.792953,39.4048187 C28.6806859,39.3519871 28.1954817,39.1143361 28.0913987,39.0672042 C27.9833824,39.0182912 27.9268758,39 28,39 C28.0731242,39 28.0166176,39.0182912 27.9086013,39.0672042 C27.8045183,39.1143361 27.3193141,39.3519871 27.207047,39.4048187 C26.3795576,39.7942255 25.7193644,40 25,40 C23.9671078,40 22.8086944,39.6138622 21.5038611,38.8682431 Z"/>
  </g>
</svg>
