<svg xmlns="http://www.w3.org/2000/svg" width="56" height="56" viewBox="0 0 56 56">
  <g fill="none" fill-rule="evenodd">
    <path fill="#858582" fill-rule="nonzero" d="M50,28 L52,28 C52,41.254834 41.254834,52 28,52 C14.745166,52 4,41.254834 4,28 L6,28 C6,40.1502645 15.8497355,50 28,50 C40.1502645,50 50,40.1502645 50,28 Z"/>
    <path fill="#D84747" fill-rule="nonzero" d="M6,28 C6,15.8497355 15.8497355,6 28,6 C40.1502645,6 50,15.8497355 50,28 L52,28 C52,14.745166 41.254834,4 28,4 C14.745166,4 4,14.745166 4,28 L6,28 Z"/>
    <path fill="#D84747" fill-rule="nonzero" d="M28,32 C25.790861,32 24,30.209139 24,28 C24,25.790861 25.790861,24 28,24 C30.209139,24 32,25.790861 32,28 C32,30.209139 30.209139,32 28,32 Z M28,30 C29.1045695,30 30,29.1045695 30,28 C30,26.8954305 29.1045695,26 28,26 C26.8954305,26 26,26.8954305 26,28 C26,29.1045695 26.8954305,30 28,30 Z"/>
    <path fill="#858582" fill-rule="nonzero" d="M35.9381062,29 C35.4460082,32.9463116 32.0796177,36 28,36 C23.9203823,36 20.5539918,32.9463116 20.0618938,29 L4,29 L4,27 L20.0618938,27 C20.5539918,23.0536884 23.9203823,20 28,20 C32.0796177,20 35.4460082,23.0536884 35.9381062,27 L52,27 L52,29 L35.9381062,29 Z M28,34 C31.3137085,34 34,31.3137085 34,28 C34,24.6862915 31.3137085,22 28,22 C24.6862915,22 22,24.6862915 22,28 C22,31.3137085 24.6862915,34 28,34 Z"/>
  </g>
</svg>
