<svg xmlns="http://www.w3.org/2000/svg" width="56" height="56" viewBox="0 0 56 56">
  <g fill="none" fill-rule="evenodd">
    <path fill="#32C1E5" fill-rule="nonzero" d="M19,4 C22,5.33333333 25,6 28,6 C31,6 34,5.33333333 37,4 L52.5455878,10.4011244 C53.3990411,10.7525463 53.9011763,11.6423541 53.7608315,12.5545949 L52.3248851,21.8882471 C52.1569273,22.9799723 51.1357525,23.7288338 50.0440273,23.5608761 C50.0150238,23.556414 48.0726582,23.126265 44.2169305,22.270429 C43.6777972,22.1506216 43.1436203,22.4905524 43.0238129,23.0296856 C43.0079852,23.1009105 43,23.1736537 43,23.2466161 L43,48 C43,50.209139 41.209139,52 39,52 L17,52 C14.790861,52 13,50.209139 13,48 L13,23.2466161 C13,22.6943313 12.5522847,22.2466161 12,22.2466161 C11.9270377,22.2466161 11.8542944,22.2546012 11.7830695,22.270429 L6.08571925,23.5365068 C5.00745279,23.7761216 3.93909898,23.0962601 3.69948421,22.0179936 C3.69311845,21.9893477 3.20634653,18.8348815 2.23916845,12.5545949 C2.09882371,11.6423541 2.60095889,10.7525463 3.45441224,10.4011244 L19,4 Z M18.9870847,6.16823293 L4.21591185,12.2504806 L5.65185833,21.5841327 L11.3492086,20.3180549 C11.5628833,20.2705716 11.781113,20.2466161 12,20.2466161 C13.6568542,20.2466161 15,21.5897618 15,23.2466161 L15,48 C15,49.1045695 15.8954305,50 17,50 L39,50 C40.1045695,50 41,49.1045695 41,48 L41,23.2466161 C41,23.027729 41.0239556,22.8094994 41.0714388,22.5958247 C41.430861,20.978425 43.0333917,19.9586327 44.6507914,20.3180549 L50.3481417,21.5841327 L51.7840882,12.2504806 L37.0129153,6.16823293 C34.0253976,7.38648189 31.017347,8 28,8 C24.982653,8 21.9746024,7.38648189 18.9870847,6.16823293 Z"/>
    <path fill="#32C1E5" fill-rule="nonzero" d="M18.1362211,6.00387103 L19.8637789,4.99612897 C22.0289948,8.7079277 24.7171033,10.5 28,10.5 C31.2828967,10.5 33.9710052,8.7079277 36.1362211,4.99612897 L37.8637789,6.00387103 C35.3623282,10.2920723 32.0504366,12.5 28,12.5 C23.9495634,12.5 20.6376718,10.2920723 18.1362211,6.00387103 Z"/>
    <rect width="8" height="2" x="30" y="21" fill="#D84747" rx="1"/>
  </g>
</svg>
