<svg xmlns="http://www.w3.org/2000/svg" width="56" height="56" viewBox="0 0 56 56">
  <g fill="none" fill-rule="evenodd">
    <rect width="3" height="6" x="43" y="25" fill="#FFD920" rx="1"/>
    <rect width="2" height="11" x="27" y="18" fill="#FFD920" rx="1"/>
    <rect width="10" height="2" x="27" y="27" fill="#FFD920" rx="1"/>
    <path fill="#32C1E5" fill-rule="nonzero" d="M36 16.2507975L38 16.2507975 38 6C38 3.790861 36.209139 2 34 2L22 2C19.790861 2 18 3.790861 18 6L18 16.2507975 20 16.2507975 20 6C20 4.8954305 20.8954305 4 22 4L34 4C35.1045695 4 36 4.8954305 36 6L36 16.2507975zM20 39.7492025L20 50C20 51.1045695 20.8954305 52 22 52L34 52C35.1045695 52 36 51.1045695 36 50L36 39.7492025 38 39.7492025 38 50C38 52.209139 36.209139 54 34 54L22 54C19.790861 54 18 52.209139 18 50L18 39.7492025 20 39.7492025z"/>
    <path fill="#858582" fill-rule="nonzero" d="M28,44 C19.163444,44 12,36.836556 12,28 C12,19.163444 19.163444,12 28,12 C36.836556,12 44,19.163444 44,28 C44,36.836556 36.836556,44 28,44 Z M28,42 C35.7319865,42 42,35.7319865 42,28 C42,20.2680135 35.7319865,14 28,14 C20.2680135,14 14,20.2680135 14,28 C14,35.7319865 20.2680135,42 28,42 Z"/>
  </g>
</svg>
