<svg xmlns="http://www.w3.org/2000/svg" width="228" height="120" viewBox="0 0 228 120">
  <g fill="none" fill-rule="evenodd" transform="translate(-2)">
    <path fill="#FFFFFF" stroke="#858582" stroke-width="2" d="M109,39 L152.590519,39 L139.993651,3.00894873 C139.57251,1.80568847 138.436907,1 137.162076,1 L112,1 C110.343146,1 109,2.34314575 109,4 L109,39 Z"/>
    <path fill="#FFFFFF" stroke="#858582" stroke-width="2" d="M56.6568542,25 C55.3307718,25 54.0590022,24.4732158 53.1213203,23.5355339 L32.4644661,2.87867966 C31.901857,2.31607052 31.1387952,2 30.3431458,2 L6.67771818,2 C6.18381255,2 5.69754691,2.12194388 5.26208784,2.35500647 C3.80129826,3.13683752 3.25089361,4.95484075 4.03272466,6.41563034 L27.5753646,50.4031944 C34.3622358,63.0839275 47.5775612,71 61.9602804,71 L212.599242,71 C214.89173,71 217.157249,70.5055489 219.241268,69.5503733 C227.244809,65.8820837 230.759225,56.4201956 227.090935,48.4166547 C220.551179,34.1480951 206.295108,25 190.599242,25 L56.6568542,25 Z"/>
    <path fill="#FFFFFF" stroke="#858582" stroke-width="2" d="M152.825786,59 L109,59 L109,116 C109,117.656854 110.343146,119 112,119 L140.593466,119 C142.065926,119 143.320726,117.93137 143.55519,116.477697 L152.825786,59 Z"/>
    <path fill="#858582" fill-rule="nonzero" d="M82 47C78.6862915 47 76 44.3137085 76 41 76 37.6862915 78.6862915 35 82 35 85.3137085 35 88 37.6862915 88 41 88 44.3137085 85.3137085 47 82 47zM82 45C84.209139 45 86 43.209139 86 41 86 38.790861 84.209139 37 82 37 79.790861 37 78 38.790861 78 41 78 43.209139 79.790861 45 82 45zM102 47C98.6862915 47 96 44.3137085 96 41 96 37.6862915 98.6862915 35 102 35 105.313708 35 108 37.6862915 108 41 108 44.3137085 105.313708 47 102 47zM102 45C104.209139 45 106 43.209139 106 41 106 38.790861 104.209139 37 102 37 99.790861 37 98 38.790861 98 41 98 43.209139 99.790861 45 102 45zM122 47C118.686292 47 116 44.3137085 116 41 116 37.6862915 118.686292 35 122 35 125.313708 35 128 37.6862915 128 41 128 44.3137085 125.313708 47 122 47zM122 45C124.209139 45 126 43.209139 126 41 126 38.790861 124.209139 37 122 37 119.790861 37 118 38.790861 118 41 118 43.209139 119.790861 45 122 45zM142 47C138.686292 47 136 44.3137085 136 41 136 37.6862915 138.686292 35 142 35 145.313708 35 148 37.6862915 148 41 148 44.3137085 145.313708 47 142 47zM142 45C144.209139 45 146 43.209139 146 41 146 38.790861 144.209139 37 142 37 139.790861 37 138 38.790861 138 41 138 43.209139 139.790861 45 142 45zM162 47C158.686292 47 156 44.3137085 156 41 156 37.6862915 158.686292 35 162 35 165.313708 35 168 37.6862915 168 41 168 44.3137085 165.313708 47 162 47zM162 45C164.209139 45 166 43.209139 166 41 166 38.790861 164.209139 37 162 37 159.790861 37 158 38.790861 158 41 158 43.209139 159.790861 45 162 45zM213 31L213 33 201.077747 33C198.609641 33 196.608846 35.0007952 196.608846 37.4689011 196.608846 38.0374322 196.71733 38.6007415 196.928477 39.1286093 198.58851 43.2786926 202.607971 46 207.077747 46L226 46 226 48 207.077747 48C201.790162 48 197.035283 44.7807907 195.071523 39.8713907 194.76588 39.1072823 194.608846 38.291871 194.608846 37.4689011 194.608846 33.8962257 197.505072 31 201.077747 31L213 31z"/>
  </g>
</svg>
