<svg xmlns="http://www.w3.org/2000/svg" width="40" height="40" viewBox="0 0 40 40">
  <path fill="#858582" d="M5,32 L5,30 C5,28.8954305 5.8954305,28 7,28 L13,28 C14.1045695,28 15,28.8954305 15,30 L15,32 L16,32 C17.1045695,32 18,32.8954305 18,34 L18,36 C18,37.1045695 17.1045695,38 16,38 L4,38 C2.8954305,38 2,37.1045695 2,36 L2,34 C2,32.8954305 2.8954305,32 4,32 L5,32 Z M7,34 L4,34 L4,36 L16,36 L16,34 L13,34 L7,34 Z M26.8795331,11.6930178 L24.5144687,13.6775425 L37.24962,27.6311858 C38.3665405,28.8549727 38.2799083,30.7524911 37.0561214,31.8694116 C37.0253622,31.8974848 36.9940218,31.9249145 36.9621206,31.9516828 L35.6255309,33.0732147 C34.3563069,34.1382201 32.4640401,33.9726682 31.3990347,32.7034442 C31.3722664,32.671543 31.3461653,32.6390878 31.3207482,32.6060999 L19.7905279,17.6413994 L17.4254635,19.6259241 C17.8589497,20.7832366 17.5442952,22.1370271 16.5436735,22.9766483 L15.0115846,24.2622236 C13.7423607,25.3272289 11.8500939,25.1616771 10.7850885,23.8924531 L6.92836283,19.2961864 C5.86335745,18.0269624 6.02890934,16.1346956 7.29813333,15.0696902 L8.83022222,13.784115 C9.83084389,12.9444937 11.2187064,12.8697028 12.2831626,13.4975686 L21.7372322,5.56466225 C21.303746,4.40734977 21.6184005,3.05355933 22.6190222,2.21393805 L24.1511111,0.928362829 C25.4203351,-0.136642554 27.3126019,0.0289093385 28.3776072,1.29813333 L32.2343329,5.89439999 C33.2993383,7.16362398 33.1337864,9.05589076 31.8645624,10.1208961 L30.3324735,11.4064714 C29.3318518,12.2460926 27.9439893,12.3208836 26.8795331,11.6930178 Z M25.4631897,10.2706564 L22.8920393,7.20647865 L13.699506,14.91993 L16.2706564,17.9841077 L25.4631897,10.2706564 Z M21.3239462,16.3547087 L32.9050281,31.3854209 C33.2861254,31.8409436 33.916881,31.8961276 34.3399556,31.5411258 L35.6765453,30.4195939 C35.6871791,30.4106711 35.6976259,30.4015279 35.7078789,30.3921702 C36.1158079,30.0198633 36.1446853,29.3873572 35.7723785,28.9794282 L22.9810504,14.9642332 L21.3239462,16.3547087 Z M8.58370855,16.6017791 C8.16063389,16.9567809 8.10544992,17.5875365 8.46045172,18.0106112 L12.3171774,22.6068778 C12.6721792,23.0299525 13.3029348,23.0851365 13.7260094,22.7301347 L15.2580983,21.4445595 C15.681173,21.0895577 15.7363569,20.4588021 15.3813551,20.0357274 L11.5246295,15.4394607 C11.1696277,15.0163861 10.5388721,14.9612021 10.1157974,15.3162039 L8.58370855,16.6017791 Z M23.9045974,3.74602693 C23.4815227,4.10102873 23.4263388,4.73178432 23.7813406,5.15485899 L27.6380662,9.75112565 C27.993068,10.1742003 28.6238236,10.2293843 29.0468983,9.87438248 L30.5789872,8.58880726 C31.0020618,8.23380547 31.0572458,7.60304987 30.702244,7.17997521 L26.8455184,2.58370855 C26.4905166,2.16063389 25.859761,2.10544992 25.4366863,2.46045172 L23.9045974,3.74602693 Z M7,30 L7,32 L13,32 L13,30 L7,30 Z"/>
</svg>
