<svg xmlns="http://www.w3.org/2000/svg" width="516" height="340" viewBox="0 0 516 340">
  <g fill="none" fill-rule="evenodd">
    <g transform="translate(16 45)">
      <rect width="54" height="104" x="1" y="13" fill="#FFFFFF" stroke="#858582" stroke-width="2" rx="2"/>
      <path fill="#FFFFFF" stroke="#858582" stroke-width="2" d="M13,13 L43,13 L43,2 C43,1.44771525 42.5522847,1 42,1 L14,1 C13.4477153,1 13,1.44771525 13,2 L13,13 Z"/>
      <polygon fill="#858582" fill-rule="nonzero" points="1 23 1 21 54 21 54 23"/>
      <path fill="#858582" d="M6,26 L10,26 L10,30 L6,30 L6,26 Z M16,26 L20,26 L20,30 L16,30 L16,26 Z M26,26 L30,26 L30,30 L26,30 L26,26 Z M36,26 L40,26 L40,30 L36,30 L36,26 Z M46,26 L50,26 L50,30 L46,30 L46,26 Z M6,34 L10,34 L10,38 L6,38 L6,34 Z M16,34 L20,34 L20,38 L16,38 L16,34 Z M26,34 L30,34 L30,38 L26,38 L26,34 Z M36,34 L40,34 L40,38 L36,38 L36,34 Z M46,34 L50,34 L50,38 L46,38 L46,34 Z M6,42 L10,42 L10,46 L6,46 L6,42 Z M16,42 L20,42 L20,46 L16,46 L16,42 Z M26,42 L30,42 L30,46 L26,46 L26,42 Z M36,42 L40,42 L40,46 L36,46 L36,42 Z M46,42 L50,42 L50,46 L46,46 L46,42 Z M6,50 L10,50 L10,54 L6,54 L6,50 Z M16,50 L20,50 L20,54 L16,54 L16,50 Z M26,50 L30,50 L30,54 L26,54 L26,50 Z M36,50 L40,50 L40,54 L36,54 L36,50 Z M46,50 L50,50 L50,54 L46,54 L46,50 Z M6,58 L10,58 L10,62 L6,62 L6,58 Z M16,58 L20,58 L20,62 L16,62 L16,58 Z M26,58 L30,58 L30,62 L26,62 L26,58 Z M36,58 L40,58 L40,62 L36,62 L36,58 Z M46,58 L50,58 L50,62 L46,62 L46,58 Z M6,66 L10,66 L10,70 L6,70 L6,66 Z M16,66 L20,66 L20,70 L16,70 L16,66 Z M26,66 L30,66 L30,70 L26,70 L26,66 Z M36,66 L40,66 L40,70 L36,70 L36,66 Z M46,66 L50,66 L50,70 L46,70 L46,66 Z M6,74 L10,74 L10,78 L6,78 L6,74 Z M16,74 L20,74 L20,78 L16,78 L16,74 Z M26,74 L30,74 L30,78 L26,78 L26,74 Z M36,74 L40,74 L40,78 L36,78 L36,74 Z M46,74 L50,74 L50,78 L46,78 L46,74 Z M6,82 L10,82 L10,86 L6,86 L6,82 Z M16,82 L20,82 L20,86 L16,86 L16,82 Z M26,82 L30,82 L30,86 L26,86 L26,82 Z M36,82 L40,82 L40,86 L36,86 L36,82 Z M46,82 L50,82 L50,86 L46,86 L46,82 Z M6,90 L10,90 L10,94 L6,94 L6,90 Z M16,90 L20,90 L20,94 L16,94 L16,90 Z M26,90 L30,90 L30,94 L26,94 L26,90 Z M36,90 L40,90 L40,94 L36,94 L36,90 Z M46,90 L50,90 L50,94 L46,94 L46,90 Z M6,98 L10,98 L10,102 L6,102 L6,98 Z M16,98 L20,98 L20,102 L16,102 L16,98 Z M26,98 L30,98 L30,102 L26,102 L26,98 Z M36,98 L40,98 L40,102 L36,102 L36,98 Z M46,98 L50,98 L50,102 L46,102 L46,98 Z M6,106 L10,106 L10,110 L6,110 L6,106 Z M16,106 L20,106 L20,110 L16,110 L16,106 Z M26,106 L30,106 L30,110 L26,110 L26,106 Z M36,106 L40,106 L40,110 L36,110 L36,106 Z M46,106 L50,106 L50,110 L46,110 L46,106 Z"/>
    </g>
    <g transform="translate(349 106)">
      <rect width="54" height="79" x="25" y="18" fill="#FFFFFF" stroke="#858582" stroke-width="2" rx="2"/>
      <path fill="#858582" d="M30,27 L74,27 L74,29 L30,29 L30,27 Z M30,37 L74,37 L74,39 L30,39 L30,37 Z M30,47 L74,47 L74,49 L30,49 L30,47 Z M30,57 L74,57 L74,59 L30,59 L30,57 Z M30,67 L74,67 L74,69 L30,69 L30,67 Z M30,77 L74,77 L74,79 L30,79 L30,77 Z"/>
      <rect width="29" height="17" x="46" y="1" fill="#FFFFFF" stroke="#858582" stroke-width="2" rx="2"/>
      <rect width="18" height="36" x="1" y="23" fill="#FFFFFF" stroke="#858582" stroke-width="2" rx="2"/>
      <path fill="#D84747" fill-rule="nonzero" d="M10,38 C7.23857625,38 5,35.7614237 5,33 C5,30.2385763 7.23857625,28 10,28 C12.7614237,28 15,30.2385763 15,33 C15,35.7614237 12.7614237,38 10,38 Z M10,36 C11.6568542,36 13,34.6568542 13,33 C13,31.3431458 11.6568542,30 10,30 C8.34314575,30 7,31.3431458 7,33 C7,34.6568542 8.34314575,36 10,36 Z"/>
      <rect width="10" height="2" x="5" y="42" fill="#32C1E5" rx="1"/>
      <rect width="10" height="2" x="5" y="46" fill="#D84747" rx="1"/>
      <rect width="6" height="2" x="19" y="29" fill="#858582"/>
      <rect width="6" height="2" x="19" y="51" fill="#858582"/>
      <path fill="#32C1E5" fill-rule="nonzero" d="M50,5 L71,5 L71,13 L50,13 L50,5 Z M52,7 L52,11 L69,11 L69,7 L52,7 Z"/>
    </g>
    <g transform="translate(444 63)">
      <rect width="46" height="104" x="1" y="22" fill="#FFFFFF" stroke="#858582" stroke-width="2" rx="2"/>
      <path fill="#858582" fill-rule="nonzero" d="M7 28L41 28 41 34 7 34 7 28zM9 30L9 32 39 32 39 30 9 30zM7 38L41 38 41 44 7 44 7 38zM9 40L9 42 39 42 39 40 9 40zM7 48L41 48 41 54 7 54 7 48zM9 50L9 52 39 52 39 50 9 50zM7 58L41 58 41 64 7 64 7 58zM9 60L9 62 39 62 39 60 9 60zM7 68L41 68 41 74 7 74 7 68zM9 70L9 72 39 72 39 70 9 70zM7 78L41 78 41 84 7 84 7 78zM9 80L9 82 39 82 39 80 9 80zM7 88L41 88 41 94 7 94 7 88zM9 90L9 92 39 92 39 90 9 90zM7 98L41 98 41 104 7 104 7 98zM9 100L9 102 39 102 39 100 9 100zM7 108L41 108 41 114 7 114 7 108zM9 110L9 112 39 112 39 110 9 110z"/>
      <path fill="#FFFFFF" stroke="#858582" stroke-width="2" d="M24 22L43 22 43 14C43 13.4477153 42.5522847 13 42 13L25 13C24.4477153 13 24 13.4477153 24 14L24 22zM5 22L13 22 13 14C13 13.4477153 12.5522847 13 12 13L6 13C5.44771525 13 5 13.4477153 5 14L5 22z"/>
      <rect width="2" height="14" x="8" fill="#858582" rx="1"/>
    </g>
    <g transform="translate(61 58)">
      <rect width="62" height="104" x="1" y="43" fill="#FFFFFF" stroke="#858582" stroke-width="2" rx="2"/>
      <path fill="#858582" d="M21,50 L30,50 L30,52 L21,52 L21,50 Z M17,50 L17,52 L6,52 L6,50 L17,50 Z M21,58 L30,58 L30,60 L21,60 L21,58 Z M17,58 L17,60 L6,60 L6,58 L17,58 Z M21,66 L30,66 L30,68 L21,68 L21,66 Z M17,66 L17,68 L6,68 L6,66 L17,66 Z M21,74 L30,74 L30,76 L21,76 L21,74 Z M17,74 L17,76 L6,76 L6,74 L17,74 Z M21,82 L30,82 L30,84 L21,84 L21,82 Z M17,82 L17,84 L6,84 L6,82 L17,82 Z M21,90 L30,90 L30,92 L21,92 L21,90 Z M17,90 L17,92 L6,92 L6,90 L17,90 Z M21,98 L30,98 L30,100 L21,100 L21,98 Z M17,98 L17,100 L6,100 L6,98 L17,98 Z M21,106 L30,106 L30,108 L21,108 L21,106 Z M17,106 L17,108 L6,108 L6,106 L17,106 Z M21,114 L30,114 L30,116 L21,116 L21,114 Z M17,114 L17,116 L6,116 L6,114 L17,114 Z M21,122 L30,122 L30,124 L21,124 L21,122 Z M17,122 L17,124 L6,124 L6,122 L17,122 Z M21,130 L30,130 L30,132 L21,132 L21,130 Z M17,130 L17,132 L6,132 L6,130 L17,130 Z M43,50 L43,52 L34,52 L34,50 L43,50 Z M47,50 L58,50 L58,52 L47,52 L47,50 Z M43,58 L43,60 L34,60 L34,58 L43,58 Z M47,58 L58,58 L58,60 L47,60 L47,58 Z M43,66 L43,68 L34,68 L34,66 L43,66 Z M47,66 L58,66 L58,68 L47,68 L47,66 Z M43,74 L43,76 L34,76 L34,74 L43,74 Z M47,74 L58,74 L58,76 L47,76 L47,74 Z M43,82 L43,84 L34,84 L34,82 L43,82 Z M47,82 L58,82 L58,84 L47,84 L47,82 Z M43,90 L43,92 L34,92 L34,90 L43,90 Z M47,90 L58,90 L58,92 L47,92 L47,90 Z M43,98 L43,100 L34,100 L34,98 L43,98 Z M47,98 L58,98 L58,100 L47,100 L47,98 Z M43,106 L43,108 L34,108 L34,106 L43,106 Z M47,106 L58,106 L58,108 L47,108 L47,106 Z M43,114 L43,116 L34,116 L34,114 L43,114 Z M47,114 L58,114 L58,116 L47,116 L47,114 Z M43,122 L43,124 L34,124 L34,122 L43,122 Z M47,122 L58,122 L58,124 L47,124 L47,122 Z M43,130 L43,132 L34,132 L34,130 L43,130 Z M47,130 L58,130 L58,132 L47,132 L47,130 Z"/>
      <path fill="#FFFFFF" stroke="#858582" stroke-width="2" d="M13,43 L51,43 L51,35 C51,34.4477153 50.5522847,34 50,34 L14,34 C13.4477153,34 13,34.4477153 13,35 L13,43 Z"/>
      <rect width="10" height="16" x="27" y="18" fill="#FFFFFF" stroke="#858582" stroke-width="2" rx="2"/>
      <rect width="2" height="19" x="31" fill="#858582" rx="1"/>
    </g>
    <g transform="translate(192 133)">
      <rect width="46" height="58" x="1" y="19" fill="#FFFFFF" stroke="#858582" stroke-width="2" rx="2"/>
      <rect width="40" height="12" x="4" y="1" fill="#FFFFFF" stroke="#858582" stroke-width="2" rx="2"/>
      <rect width="2" height="6" x="9" y="13" fill="#858582"/>
      <rect width="2" height="6" x="37" y="13" fill="#858582"/>
      <path fill="#D84747" fill-rule="nonzero" d="M11.7071068,9.70710678 C11.3165825,10.0976311 10.6834175,10.0976311 10.2928932,9.70710678 C9.90236893,9.31658249 9.90236893,8.68341751 10.2928932,8.29289322 L14.2928932,4.29289322 C14.6834175,3.90236893 15.3165825,3.90236893 15.7071068,4.29289322 C16.0976311,4.68341751 16.0976311,5.31658249 15.7071068,5.70710678 L11.7071068,9.70710678 Z"/>
      <path fill="#FFD920" fill-rule="nonzero" d="M21.7071068,9.70710678 C21.3165825,10.0976311 20.6834175,10.0976311 20.2928932,9.70710678 C19.9023689,9.31658249 19.9023689,8.68341751 20.2928932,8.29289322 L24.2928932,4.29289322 C24.6834175,3.90236893 25.3165825,3.90236893 25.7071068,4.29289322 C26.0976311,4.68341751 26.0976311,5.31658249 25.7071068,5.70710678 L21.7071068,9.70710678 Z"/>
      <path fill="#32C1E5" fill-rule="nonzero" d="M34,8 C34.5522847,8 35,7.55228475 35,7 C35,6.44771525 34.5522847,6 34,6 C33.4477153,6 33,6.44771525 33,7 C33,7.55228475 33.4477153,8 34,8 Z M34,10 C32.3431458,10 31,8.65685425 31,7 C31,5.34314575 32.3431458,4 34,4 C35.6568542,4 37,5.34314575 37,7 C37,8.65685425 35.6568542,10 34,10 Z"/>
      <path fill="#858582" fill-rule="nonzero" d="M6,24 L22,24 L22,32 L6,32 L6,24 Z M8,26 L8,30 L20,30 L20,26 L8,26 Z M26,24 L42,24 L42,32 L26,32 L26,24 Z M28,26 L28,30 L40,30 L40,26 L28,26 Z M6,36 L22,36 L22,44 L6,44 L6,36 Z M8,38 L8,42 L20,42 L20,38 L8,38 Z M26,36 L42,36 L42,44 L26,44 L26,36 Z M28,38 L28,42 L40,42 L40,38 L28,38 Z M6,48 L22,48 L22,56 L6,56 L6,48 Z M8,50 L8,54 L20,54 L20,50 L8,50 Z M26,48 L42,48 L42,56 L26,56 L26,48 Z M28,50 L28,54 L40,54 L40,50 L28,50 Z"/>
      <rect width="34" height="14" x="7" y="63" fill="#FFFFFF" stroke="#858582" stroke-width="2"/>
    </g>
    <g transform="translate(33 123)">
      <rect width="44" height="70" x="1" y="23" fill="#FFFFFF" stroke="#858582" stroke-width="2" rx="2"/>
      <rect width="32" height="16" x="7" y="1" fill="#FFFFFF" stroke="#858582" stroke-width="2" rx="2"/>
      <rect width="2" height="8" x="12" y="16" fill="#858582"/>
      <rect width="2" height="8" x="32" y="16" fill="#858582"/>
      <path fill="#D84747" fill-rule="nonzero" d="M17,13 C14.790861,13 13,11.209139 13,9 C13,6.790861 14.790861,5 17,5 C19.209139,5 21,6.790861 21,9 C21,11.209139 19.209139,13 17,13 Z M17,11 C18.1045695,11 19,10.1045695 19,9 C19,7.8954305 18.1045695,7 17,7 C15.8954305,7 15,7.8954305 15,9 C15,10.1045695 15.8954305,11 17,11 Z M25.8944272,12.4472136 C25.6474379,12.9411921 25.0467649,13.1414164 24.5527864,12.8944272 C24.0588079,12.6474379 23.8585836,12.0467649 24.1055728,11.5527864 L26.1055728,7.5527864 C26.3745709,7.01479025 27.0542236,6.83429865 27.5547002,7.16794971 L29.6121684,8.53959519 L31.1055728,5.5527864 C31.3525621,5.05880791 31.9532351,4.85858356 32.4472136,5.10557281 C32.9411921,5.35256206 33.1414164,5.9532351 32.8944272,6.4472136 L30.8944272,10.4472136 C30.6254291,10.9852098 29.9457764,11.1657013 29.4452998,10.8320503 L27.3878316,9.46040481 L25.8944272,12.4472136 Z"/>
      <path fill="#858582" fill-rule="nonzero" d="M6,28 L40,28 L40,38 L6,38 L6,28 Z M8,30 L8,36 L38,36 L38,30 L8,30 Z M6,42 L40,42 L40,52 L6,52 L6,42 Z M8,44 L8,50 L38,50 L38,44 L8,44 Z M6,56 L40,56 L40,66 L6,66 L6,56 Z M8,58 L8,64 L38,64 L38,58 L8,58 Z M6,70 L40,70 L40,80 L6,80 L6,70 Z M8,72 L8,78 L38,78 L38,72 L8,72 Z"/>
      <rect width="32" height="2" x="7" y="32" fill="#858582"/>
      <rect width="32" height="2" x="7" y="46" fill="#858582"/>
      <rect width="32" height="2" x="7" y="60" fill="#858582"/>
      <rect width="32" height="2" x="7" y="74" fill="#858582"/>
    </g>
    <g transform="translate(136 6)">
      <rect width="40" height="166" x="1" y="48" fill="#FFFFFF" stroke="#858582" stroke-width="2" rx="2"/>
      <path fill="#FFFFFF" stroke="#858582" stroke-width="2" d="M15.8198039,28 L13.2198039,41 L28.7801961,41 L26.1801961,28 L15.8198039,28 Z"/>
      <rect width="30" height="7" x="6" y="41" fill="#FFFFFF" stroke="#858582" stroke-width="2" rx="2"/>
      <circle cx="21" cy="21" r="8" fill="#FFFFFF" stroke="#858582" stroke-width="2"/>
      <rect width="2" height="14" x="20" fill="#858582" rx="1"/>
      <path fill="#858582" d="M10,175 L8,175 L8,155 L10,155 L10,175 Z M10,179 L10,199 L8,199 L8,179 L10,179 Z M18,175 L16,175 L16,155 L18,155 L18,175 Z M18,179 L18,199 L16,199 L16,179 L18,179 Z M26,175 L24,175 L24,155 L26,155 L26,175 Z M26,179 L26,199 L24,199 L24,179 L26,179 Z M34,175 L32,175 L32,155 L34,155 L34,175 Z M34,179 L34,199 L32,199 L32,179 L34,179 Z M10,125 L8,125 L8,105 L10,105 L10,125 Z M10,129 L10,149 L8,149 L8,129 L10,129 Z M18,125 L16,125 L16,105 L18,105 L18,125 Z M18,129 L18,149 L16,149 L16,129 L18,129 Z M26,125 L24,125 L24,105 L26,105 L26,125 Z M26,129 L26,149 L24,149 L24,129 L26,129 Z M34,125 L32,125 L32,105 L34,105 L34,125 Z M34,129 L34,149 L32,149 L32,129 L34,129 Z M10,75 L8,75 L8,55 L10,55 L10,75 Z M10,79 L10,99 L8,99 L8,79 L10,79 Z M18,75 L16,75 L16,55 L18,55 L18,75 Z M18,79 L18,99 L16,99 L16,79 L18,79 Z M26,75 L24,75 L24,55 L26,55 L26,75 Z M26,79 L26,99 L24,99 L24,79 L26,79 Z M34,75 L32,75 L32,55 L34,55 L34,75 Z M34,79 L34,99 L32,99 L32,79 L34,79 Z"/>
    </g>
    <g transform="translate(423 149)">
      <rect width="46" height="70" x="1" y="23" fill="#FFFFFF" stroke="#858582" stroke-width="2" rx="2"/>
      <path fill="#858582" fill-rule="nonzero" d="M7,35 L41,35 L41,41 L7,41 L7,35 Z M9,37 L9,39 L39,39 L39,37 L9,37 Z M7,45 L41,45 L41,51 L7,51 L7,45 Z M9,47 L9,49 L39,49 L39,47 L9,47 Z M7,55 L41,55 L41,61 L7,61 L7,55 Z M9,57 L9,59 L39,59 L39,57 L9,57 Z M7,65 L41,65 L41,71 L7,71 L7,65 Z M9,67 L9,69 L39,69 L39,67 L9,67 Z M7,75 L41,75 L41,81 L7,81 L7,75 Z M9,77 L9,79 L39,79 L39,77 L9,77 Z"/>
      <rect width="32" height="16" x="8" y="1" fill="#FFFFFF" stroke="#858582" stroke-width="2" rx="2"/>
      <rect width="2" height="8" x="13" y="16" fill="#858582"/>
      <rect width="2" height="8" x="33" y="16" fill="#858582"/>
      <path fill="#D84747" fill-rule="nonzero" d="M13.8,12.6 L12.2,11.4 C15.9619518,6.38406428 18.2744767,5.03509143 23.1961161,6.01941932 C24.6691285,6.31402179 25.9001952,6.88770774 27.7072959,7.9740873 C30.1534216,9.44463112 30.5194967,9.63646486 31.381387,9.77541879 C32.3545814,9.93231718 33.2225807,9.57426508 34.2526468,8.41563783 L35.7473532,9.74449175 C34.2852033,11.3891306 32.7508969,12.0220363 31.0630575,11.7499229 C29.8242775,11.5502068 29.4335784,11.3454693 26.6768269,9.68818573 C25.0521445,8.71147114 23.9948862,8.21878113 22.8038839,7.98058068 C18.7893531,7.17767453 17.1491593,8.13445424 13.8,12.6 Z"/>
    </g>
    <rect width="516" height="340" fill="#FFFFFF" opacity=".4"/>
  </g>
</svg>
