<svg xmlns="http://www.w3.org/2000/svg" width="40" height="40" viewBox="0 0 40 40">
  <path fill="#858582" d="M11.9693856,22.0004597 C11.979553,22.000154 11.9897585,22 12,22 L30.5905616,22 C31.0131752,22 31.3901632,21.7343294 31.5323035,21.3363364 L35.1037321,11.3363364 C35.2894856,10.8162267 35.0184363,10.2440116 34.4983266,10.0582581 C34.3903818,10.0197064 34.2766126,10 34.1619902,10 L27,10 C26.4477153,10 26,9.55228475 26,9 C26,8.44771525 26.4477153,8 27,8 L34.1619902,8 C34.5058575,8 34.8471651,8.05911918 35.1709994,8.17477427 C36.7313285,8.73203465 37.5444763,10.4486801 36.9872159,12.0090092 L33.4157873,22.0090092 C32.9893663,23.2029881 31.8584025,24 30.5905616,24 L12.4169571,24 C12.8350621,25.1849659 13.9607902,26 15.2455764,26 L29,26 C30.6934482,26 32.3100123,26.528536 33.6578134,27.4951304 C34.1066142,27.8169942 34.209517,28.4417413 33.8876533,28.8905421 C33.5657895,29.3393429 32.9410424,29.4422457 32.4922416,29.1203819 C31.4814845,28.3955033 30.2718101,28 29,28 L15.2455764,28 C12.8811403,28 10.8399261,26.3437708 10.3528275,24.0300524 L7.69007297,11.3819686 C7.3978138,9.99373752 6.17308525,9 4.75442361,9 L3,9 C2.44771525,9 2,8.55228475 2,8 C2,7.44771525 2.44771525,7 3,7 L4.75442361,7 C7.11885968,7 9.16007393,8.65622919 9.64717254,10.9699476 L11.9693856,22.0004597 Z M24,14.5857864 L25.2928932,13.2928932 C25.6834175,12.9023689 26.3165825,12.9023689 26.7071068,13.2928932 C27.0976311,13.6834175 27.0976311,14.3165825 26.7071068,14.7071068 L23.7071068,17.7071068 C23.3165825,18.0976311 22.6834175,18.0976311 22.2928932,17.7071068 L19.2928932,14.7071068 C18.9023689,14.3165825 18.9023689,13.6834175 19.2928932,13.2928932 C19.6834175,12.9023689 20.3165825,12.9023689 20.7071068,13.2928932 L22,14.5857864 L22,4 C22,3.44771525 22.4477153,3 23,3 C23.5522847,3 24,3.44771525 24,4 L24,14.5857864 Z M16,38 C13.790861,38 12,36.209139 12,34 C12,31.790861 13.790861,30 16,30 C18.209139,30 20,31.790861 20,34 C20,36.209139 18.209139,38 16,38 Z M16,36 C17.1045695,36 18,35.1045695 18,34 C18,32.8954305 17.1045695,32 16,32 C14.8954305,32 14,32.8954305 14,34 C14,35.1045695 14.8954305,36 16,36 Z M29,38 C26.790861,38 25,36.209139 25,34 C25,31.790861 26.790861,30 29,30 C31.209139,30 33,31.790861 33,34 C33,36.209139 31.209139,38 29,38 Z M29,36 C30.1045695,36 31,35.1045695 31,34 C31,32.8954305 30.1045695,32 29,32 C27.8954305,32 27,32.8954305 27,34 C27,35.1045695 27.8954305,36 29,36 Z M19,8 C19.5522847,8 20,8.44771525 20,9 C20,9.55228475 19.5522847,10 19,10 L13,10 C12.4477153,10 12,9.55228475 12,9 C12,8.44771525 12.4477153,8 13,8 L19,8 Z"/>
</svg>
