<svg xmlns="http://www.w3.org/2000/svg" width="119" height="62" viewBox="0 0 119 62">
  <g fill="none" fill-rule="evenodd">
    <path fill="#FFFFFF" stroke="#858582" stroke-width="2" d="M94,61 C107.254834,61 118,50.254834 118,37 C118,23.745166 107.254834,13 94,13 C89.8010799,13 85.7613828,14.0787958 82.1889726,16.1023997 L81.3353018,16.5859645 L80.835552,15.7416666 C75.4700679,6.67699497 65.7280857,1 55,1 C40.6526017,1 28.3915143,11.1480048 25.5918503,25.0398463 L25.3733562,26.1240064 L24.3166021,25.7977957 C22.6098396,25.2709333 20.8237145,25 19,25 C9.0588745,25 1,33.0588745 1,43 C1,52.9411255 9.0588745,61 19,61 L94,61 Z"/>
    <path fill="#32C1E5" fill-rule="nonzero" d="M68.6055307,11.2264885 C69.0602486,11.5399373 69.1747697,12.1626594 68.861321,12.6173772 C68.5478722,13.0720951 67.9251501,13.1866162 67.4704323,12.8731674 C63.8304764,10.3640515 59.5185534,9 55,9 C46.456482,9 38.7989541,13.9136041 35.1613071,21.4784528 C34.9219677,21.9761828 34.324455,22.1856498 33.826725,21.9463105 C33.328995,21.7069711 33.119528,21.1094584 33.3588674,20.6117284 C37.3265721,12.3604918 45.6805451,7 55,7 C59.9272551,7 64.6343798,8.48907121 68.6055307,11.2264885 Z"/>
  </g>
</svg>
