<svg xmlns="http://www.w3.org/2000/svg" width="116" height="62" viewBox="0 0 116 62">
  <g fill="none" fill-rule="evenodd">
    <path fill="#FFFFFF" stroke="#858582" stroke-width="2" d="M97,61 C106.941125,61 115,52.9411255 115,43 C115,33.0588745 106.941125,25 97,25 C94.1983789,25 91.4901581,25.6398846 89.034983,26.8534534 L87.8232287,27.4524116 L87.604989,26.1184435 C85.2489342,11.7172939 72.7508334,1 58,1 C45.7171174,1 34.8153266,8.44999623 30.2324925,19.6221731 L29.8717819,20.5015248 L28.9752519,20.1859214 C26.754532,19.4041662 24.4055636,19 22,19 C10.4020203,19 1,28.4020203 1,40 C1,51.5979797 10.4020203,61 22,61 L97,61 Z"/>
    <path fill="#32C1E5" fill-rule="nonzero" d="M79.814578,20.9804427 C80.0453939,21.4821822 79.8257669,22.0760356 79.3240274,22.3068515 C78.8222879,22.5376673 78.2284345,22.3180403 77.9976187,21.8163009 C74.4338952,14.0696025 66.6775943,9 58,9 C53.49068,9 49.187075,10.3584624 45.5515682,12.8580216 C45.0964711,13.1709195 44.4738881,13.0556442 44.1609903,12.600547 C43.8480925,12.1454499 43.9633677,11.522867 44.4184649,11.2099692 C48.3847736,8.48297003 53.0828187,7 58,7 C67.4658007,7 75.9273757,12.5305773 79.814578,20.9804427 Z"/>
  </g>
</svg>
