<svg xmlns="http://www.w3.org/2000/svg" width="122" height="82" viewBox="0 0 122 82">
  <g fill="none" fill-rule="evenodd">
    <path fill="#FFFFFF" d="M83,72 L41,72 C41,64.2680135 34.7319865,58 27,58 C19.2680135,58 13,64.2680135 13,72 L5,72 C2.790861,72 1,70.209139 1,68 L1,5 C1,2.790861 2.790861,1 5,1 L85,1 C87.209139,1 89,2.790861 89,5 L89,11 C89,11.5522847 89.4477153,12 90,12 L101.201523,12 C105.943788,12 110.241245,14.7928023 112.167262,19.1263384 L120.655246,38.2243039 C120.882551,38.7357399 121,39.2891844 121,39.8488578 L121,68 C121,70.209139 119.209139,72 117,72 L111,72 C111,64.2680135 104.731986,58 97,58 C89.2680135,58 83,64.2680135 83,72 Z"/>
    <path fill="#FFD920" d="M0,61 L17,61 L17,63 L0,63 L0,61 Z M37,61 L87,61 L87,63 L37,63 L37,61 Z"/>
    <path fill="#858582" fill-rule="nonzero" d="M97,57 C104.948243,57 111.452609,63.1819682 111.967195,71 L117,71 C118.656854,71 120,69.6568542 120,68 L120,39.8488578 C120,39.4291028 119.911913,39.0140194 119.741435,38.6304424 L111.25345,19.5324769 C109.487935,15.5600687 105.548599,13 101.201523,13 L90,13 C88.8954305,13 88,12.1045695 88,11 L88,5 C88,3.34314575 86.6568542,2 85,2 L5,2 C3.34314575,2 2,3.34314575 2,5 L2,68 C2,69.6568542 3.34314575,71 5,71 L12.0328046,71 C12.5473906,63.1819682 19.0517573,57 27,57 C34.9482427,57 41.4526094,63.1819682 41.9671954,71 L82.0328046,71 C82.5473906,63.1819682 89.0517573,57 97,57 Z M83,73 L41,73 C40.4477153,73 40,72.5522847 40,72 C40,64.8202983 34.1797017,59 27,59 C19.8202983,59 14,64.8202983 14,72 C14,72.5522847 13.5522847,73 13,73 L5,73 C2.23857625,73 -6.8278716e-15,70.7614237 -7.10542736e-15,68 L-7.10542736e-15,5 C-7.38298311e-15,2.23857625 2.23857625,5.55111512e-16 5,0 L85,0 C87.7614237,-1.02140518e-14 90,2.23857625 90,5 L90,11 L101.201523,11 C106.338976,11 110.994556,14.0255358 113.081073,18.7201999 L121.569058,37.8181655 C121.853189,38.4574605 122,39.1492661 122,39.8488578 L122,68 C122,70.7614237 119.761424,73 117,73 L111,73 C110.447715,73 110,72.5522847 110,72 C110,64.8202983 104.179702,59 97,59 C89.8202983,59 84,64.8202983 84,72 C84,72.5522847 83.5522847,73 83,73 Z"/>
    <circle cx="27" cy="72" r="9" fill="#FFFFFF" stroke="#858582" stroke-width="2"/>
    <circle cx="97" cy="72" r="9" fill="#FFFFFF" stroke="#858582" stroke-width="2"/>
    <polygon fill="#858582" fill-rule="nonzero" points="88 11.5 90 11.5 90 60.5 88 60.5"/>
    <rect width="28" height="2" x="7" y="10" fill="#FFD920" rx="1"/>
    <rect width="16" height="2" x="7" y="16" fill="#FFD920" rx="1"/>
    <polygon fill="#858582" fill-rule="nonzero" points="121 38 121 40 89 40 89 38"/>
  </g>
</svg>
