<svg xmlns="http://www.w3.org/2000/svg" width="516" height="340" viewBox="0 0 516 340">
  <g fill="none" fill-rule="evenodd">
    <path fill="#858582" fill-rule="nonzero" d="M300.403793,13.2230252 C262.49016,72.305499 230.436676,107.176812 204.115729,117.856662 C203.603967,118.064312 203.020769,117.817781 202.813119,117.306019 C202.60547,116.794257 202.852001,116.211059 203.363763,116.003409 C229.288452,105.484343 261.262862,70.6301234 299.1579,11.4606778 C299.413959,11.0608669 299.915846,10.8962188 300.358979,11.0666544 C311.838519,15.481862 318.247025,15.481862 329.712652,12.0421737 C330.230349,11.8868647 330.777765,12.1710174 330.948683,12.6837722 C335.851342,27.391748 359.636201,55.9775569 387.789364,81.0025907 C419.396659,109.097964 449.66436,127 469,127 C469.552285,127 470,127.447715 470,128 C470,128.552285 469.552285,129 469,129 C449.01388,129 418.417682,110.903673 386.460636,82.4974093 C358.622728,57.7526022 335.043917,29.5863804 329.372022,14.228184 C318.309721,17.4424092 311.554762,17.40245 300.403793,13.2230252 Z"/>
    <polygon fill="#858582" fill-rule="nonzero" points="277.336 46.942 276.664 45.058 291.156 39.882 298.116 44.854 307.097 40.863 315.918 46.743 323.937 39.726 331 44.771 337.833 39.89 351.816 44.551 351.184 46.449 338.167 42.11 331 47.229 324.063 42.274 316.082 49.257 306.903 43.137 297.884 47.146 290.844 42.118"/>
    <path fill="#858582" fill-rule="nonzero" d="M243.961567,85.0007388 L244.038433,86.9992612 C226.503858,87.6736679 212.293361,84.2902163 201.433471,76.8240419 C187.160874,67.0116312 175.375005,66.3183448 148.203954,71.9789804 C128.139104,76.1591576 113.784904,78.5387308 96.4516965,79.8720545 C71.9084124,81.7599994 49.1948676,80.420243 28.7423373,74.9662349 L29.2576627,73.0337651 C49.4672856,78.4229979 71.9628997,79.7498997 96.2983035,77.8779455 C113.526439,76.5527043 127.80854,74.1850833 147.796046,70.0210196 C175.450683,64.2596369 187.739711,64.9825209 202.566529,75.1759581 C213.039972,82.3764503 226.829475,85.6596654 243.961567,85.0007388 Z"/>
    <rect width="516" height="340" fill="#FFFFFF" opacity=".4"/>
    <g fill="#858582" transform="translate(104 117)">
      <path fill-rule="nonzero" d="M0,11 L0,9 L165,9 C168.0953,9 171.247205,9.38523283 174.606742,10.1351295 C179.655819,11.2621557 180.556377,11.5781409 193.851123,16.5636708 C207.780456,21.7871706 216.730122,24 228,24 L362,24 L362,26 L228,26 C216.436545,26 207.28406,23.7370229 193.148877,18.4363292 C179.978977,13.4976167 179.085149,13.1839929 174.171036,12.0870927 C170.947731,11.367605 167.940054,11 165,11 L0,11 Z"/>
      <path fill-rule="nonzero" d="M0,1 L0,-1 L165,-1 C168.0953,-1 171.247205,-0.614767168 174.606742,0.135129525 C179.655819,1.26215568 180.556377,1.57814092 193.851123,6.56367082 C207.780456,11.7871706 216.730122,14 228,14 L362,14 L362,16 L228,16 C216.436545,16 207.28406,13.7370229 193.148877,8.43632918 C179.978977,3.49761666 179.085149,3.18399292 174.171036,2.0870927 C170.947731,1.36760498 167.940054,1 165,1 L0,1 Z"/>
      <rect width="2" height="40" x="111" y="9" rx="1"/>
      <rect width="2" height="40" x="63" y="9" rx="1"/>
      <rect width="2" height="40" x="159" y="9" rx="1"/>
      <rect width="2" height="40" x="207" y="22" rx="1"/>
      <rect width="2" height="40" x="255" y="22" rx="1"/>
    </g>
  </g>
</svg>
