<svg xmlns="http://www.w3.org/2000/svg" width="50" height="50" viewBox="0 0 50 50">
  <g fill="none" fill-rule="evenodd">
    <circle cx="25" cy="25" r="25" fill="#F8F8F6"/>
    <g transform="translate(8 8)">
      <ellipse cx="17" cy="20.339" fill="#858582" rx="1.214" ry="1"/>
      <path fill="#D84747" fill-rule="nonzero" d="M24.376006 28.2079805C24.460085 28.2715502 24.5718409 28.3519136 24.6916256 28.4350177 24.8070841 28.5151204 24.9221482 28.5923074 25.0123174 28.65025 25.0499475 28.6744311 25.0810493 28.6938395 25.1024629 28.706646 25.0837585 28.6963061 25.064859 28.687568 25.012948 28.667187L24.5691802 29.797479C24.444064 29.7483567 23.5539735 29.1397659 23.4323068 28.9998044 22.2223788 27.6079414 22.5750167 25.3204383 24.2199457 23.8905234 25.8648748 22.4606084 28.1791937 22.4297612 29.3891217 23.8216242 29.474001 23.9192666 29.7713133 24.3765897 29.8315413 24.5079677L28.7277185 25.0139964C28.7178536 24.9924777 28.4848908 24.6323042 28.4726887 24.6182673 27.7349769 23.7696269 26.1861517 23.790271 25.0165888 24.8069564 23.8471802 25.8235079 23.6110903 27.3541174 24.3484483 28.2028257 24.3017349 28.1490393 24.3386348 28.1797252 24.376006 28.2079805zM9.40244364 29.808459C9.52805042 29.7605647 10.3370842 29.2650897 10.5676932 28.9998044 11.7776212 27.6079414 11.4249833 25.3204383 9.78005426 23.8905234 8.13512524 22.4606084 5.82080632 22.4297612 4.61087826 23.8216242 4.41449927 24.0475324 4.25928349 24.2970347 4.14407533 24.562635L5.25807438 25.0458491C5.32575703 24.8898139 5.41553208 24.7468546 5.52731133 24.6182673 6.26502315 23.7696269 7.81384834 23.790271 8.98341115 24.8069564 10.152974 25.8236419 10.3889719 27.3545209 9.6512601 28.2031613 9.64319464 28.2124395 9.47581491 28.3407463 9.27641865 28.4724592 9.17614406 28.5386965 9.07326569 28.6030653 8.98776576 28.6535401 8.95240882 28.6744131 8.9138782 28.6951856 8.96981573 28.6738564L9.40244364 29.808459z"/>
      <path fill="#858582" fill-rule="nonzero" d="M11.2321429 19.4285714C10.0585378 19.4285714 9.10714286 18.341263 9.10714286 17 9.10714286 15.658737 10.0585378 14.5714286 11.2321429 14.5714286 12.405748 14.5714286 13.3571429 15.658737 13.3571429 17 13.3571429 18.341263 12.405748 19.4285714 11.2321429 19.4285714zM11.2321429 18.2142857C11.6963732 18.2142857 12.1428571 17.7040184 12.1428571 17 12.1428571 16.2959816 11.6963732 15.7857143 11.2321429 15.7857143 10.7679125 15.7857143 10.3214286 16.2959816 10.3214286 17 10.3214286 17.7040184 10.7679125 18.2142857 11.2321429 18.2142857zM22.7678571 19.4285714C21.594252 19.4285714 20.6428571 18.341263 20.6428571 17 20.6428571 15.658737 21.594252 14.5714286 22.7678571 14.5714286 23.9414622 14.5714286 24.8928571 15.658737 24.8928571 17 24.8928571 18.341263 23.9414622 19.4285714 22.7678571 19.4285714zM22.7678571 18.2142857C23.2320875 18.2142857 23.6785714 17.7040184 23.6785714 17 23.6785714 16.2959816 23.2320875 15.7857143 22.7678571 15.7857143 22.3036268 15.7857143 21.8571429 16.2959816 21.8571429 17 21.8571429 17.7040184 22.3036268 18.2142857 22.7678571 18.2142857z"/>
      <path fill="#FFD920" fill-rule="nonzero" d="M17,32.1785714 C10.3214286,32.1785714 3.03571429,27.625 3.03571429,20.6428571 C3.03571429,14.2718581 9.41071429,9.10714286 17,9.10714286 C24.5892857,9.10714286 30.9642857,14.2718581 30.9642857,20.6428571 C30.9642857,27.625 23.6785714,32.1785714 17,32.1785714 Z M17,30.9642857 C23.705655,30.9642857 29.75,26.3878531 29.75,20.6428571 C29.75,15.0360323 24.0081314,10.3214286 17,10.3214286 C9.99186858,10.3214286 4.25,15.0360323 4.25,20.6428571 C4.25,26.3878531 10.294345,30.9642857 17,30.9642857 Z"/>
      <path fill="#FFD920" fill-rule="nonzero" d="M6.71146137 13.3839222L5.77479011 14.1566684C2.65194699 10.371367 1.60781945 3.35913975 3.30607488 2.22696946 5.05436184 1.06144482 10.0795076 4.87576675 12.7657903 10.2007946L11.6816427 10.7477075C10.34668 8.10140622 8.59465004 5.99548511 6.75762792 4.60109894 6.01698327 4.03891483 5.30527891 3.63054269 4.71849348 3.41204389 4.28625057 3.25109143 3.99491913 3.22712977 3.9796394 3.23731625 3.7915104 3.36273559 3.63192617 4.99229178 3.89893127 6.7854639 4.25740153 9.19290438 5.20680175 11.5600745 6.71146137 13.3839222zM22.3641226 10.6575177L21.2825752 10.1054807C23.9724217 4.83555046 28.9586294 1.07010564 30.6939251 2.22696946 32.3948464 3.360917 31.3458121 10.3851521 28.2141489 14.1700562L27.2785886 13.3959653C28.7876232 11.5721577 29.7400514 9.20281115 30.1001466 6.79164791 30.3683274 4.99593435 30.2089404 3.36303609 30.0203606 3.23731625 30.0056405 3.22750284 29.7177834 3.25059614 29.2897052 3.40900053 28.7082075 3.62417568 28.0022258 4.02723161 27.2666477 4.58271966 25.4435982 5.95943571 23.6995991 8.04106075 22.3641226 10.6575177z"/>
      <path fill="#858582" fill-rule="nonzero" d="M18.2142857,23.9821429 L19.4285714,23.9821429 C19.4285714,25.4910637 18.8214286,27.9285714 17,27.9285714 C15.1785714,27.9285714 14.5714286,25.4910637 14.5714286,23.9821429 L15.7857143,23.9821429 C15.7857143,25.4828628 16.3712853,26.7142857 17,26.7142857 C17.6287147,26.7142857 18.2142857,25.4828628 18.2142857,23.9821429 Z"/>
      <path fill="#858582" fill-rule="nonzero" d="M13.0559156,23.5985762 C12.7647801,23.432213 12.663632,23.061337 12.8299952,22.7702014 C12.9963584,22.4790658 13.3672345,22.3779178 13.6583701,22.5442809 C14.2828165,22.9011075 14.7937798,23.0714286 15.1785714,23.0714286 C15.3932282,23.0714286 15.6479454,22.9920362 16.001525,22.8256458 C16.0543171,22.8008024 16.360152,22.6510058 16.4436059,22.6132153 C16.6616934,22.5144587 16.8166921,22.4642857 17,22.4642857 C17.1833079,22.4642857 17.3383066,22.5144587 17.5563941,22.6132153 C17.639848,22.6510058 17.9456829,22.8008024 17.998475,22.8256458 C18.3520546,22.9920362 18.6067718,23.0714286 18.8214286,23.0714286 C19.2062202,23.0714286 19.7171835,22.9011075 20.3416299,22.5442809 C20.6327655,22.3779178 21.0036416,22.4790658 21.1700048,22.7702014 C21.336368,23.061337 21.2352199,23.432213 20.9440844,23.5985762 C20.1518641,24.0512735 19.4485417,24.2857143 18.8214286,24.2857143 C18.3846716,24.2857143 17.98384,24.1607798 17.4814357,23.9243542 C17.4132736,23.8922779 17.1186853,23.7479898 17.0554921,23.719374 C16.9899108,23.6896768 16.9556032,23.6785714 17,23.6785714 C17.0443968,23.6785714 17.0100892,23.6896768 16.9445079,23.719374 C16.8813147,23.7479898 16.5867264,23.8922779 16.5185643,23.9243542 C16.01616,24.1607798 15.6153284,24.2857143 15.1785714,24.2857143 C14.5514583,24.2857143 13.8481359,24.0512735 13.0559156,23.5985762 Z"/>
    </g>
  </g>
</svg>
