<svg xmlns="http://www.w3.org/2000/svg" width="88" height="86" viewBox="0 0 88 86">
    <g fill="none" fill-rule="evenodd">
        <path fill="#858582" fill-rule="nonzero" d="M2.828 18h82.344L69.757 2.586A2 2 0 0 0 68.343 2H19.657a2 2 0 0 0-1.414.586L2.828 18zM86 20H2v62a2 2 0 0 0 2 2h80a2 2 0 0 0 2-2V20zM1.172 16.828L16.828 1.172A4 4 0 0 1 19.657 0h48.686a4 4 0 0 1 2.829 1.172l15.656 15.656A4 4 0 0 1 88 19.657V82a4 4 0 0 1-4 4H4a4 4 0 0 1-4-4V19.657a4 4 0 0 1 1.172-2.829z"/>
        <path fill="#D84747" d="M31 40.618V18.864L36.24 0h15.52L57 18.864v21.754l-7-3.5-6 3-6-3-7 3.5zM37.76 2L33 19.136v18.246l5-2.5 6 3 6-3 5 2.5V19.136L50.24 2H37.76z"/>
        <rect width="24" height="2" x="8" y="68" fill="#FFD920" rx="1"/>
        <rect width="13" height="2" x="8" y="74" fill="#FFD920" rx="1"/>
    </g>
</svg>
