<svg xmlns="http://www.w3.org/2000/svg" width="179" height="44" viewBox="0 0 179 44">
    <g fill="none" fill-rule="evenodd">
        <g transform="translate(135)">
            <circle cx="22" cy="22" r="21.5" fill="#FFF" stroke="#EBEBE7"/>
            <path fill="#000" d="M24 18.8a9.483 9.483 0 0 0-.936-.18 7.528 7.528 0 0 0-.937-.049c-1.456 0-2.624.403-3.503 1.209-.878.805-1.318 2.166-1.318 4.081V30H12V14.261h5.306v2.547c.393-.74 1.047-1.393 1.96-1.959.913-.566 1.96-.849 3.139-.849.624 0 1.156.087 1.595.261V18.8z"/>
            <path fill="#BC002D" d="M26 22.055c0-1.143.389-2.104 1.167-2.884.778-.78 1.75-1.171 2.917-1.171a4.171 4.171 0 0 1 2.938 1.17c.375.363.666.795.875 1.296a4.1 4.1 0 0 1 .312 1.589c0 .557-.104 1.08-.312 1.568-.209.487-.5.92-.875 1.296a4.026 4.026 0 0 1-1.313.877c-.5.21-1.042.314-1.625.314a4.02 4.02 0 0 1-1.605-.314 4.088 4.088 0 0 1-1.291-.877 4.102 4.102 0 0 1-.875-1.296A3.948 3.948 0 0 1 26 22.055z"/>
        </g>
        <g>
            <rect width="118" height="44" fill="#F8F8F6" rx="22"/>
            <text fill="#8C8C8C" font-family=".SFNSDisplay, .SF NS Display" font-size="20" letter-spacing="-.125">
                <tspan x="26" y="29">OK</tspan>
            </text>
            <path stroke="#63CB3A" stroke-linecap="round" stroke-linejoin="round" stroke-width="2" d="M70 24l7 5 10-15"/>
            <path stroke="#63CB3A" stroke-linecap="round" stroke-width="2" d="M82 29l10-15" opacity=".5"/>
        </g>
    </g>
</svg>
