<svg xmlns="http://www.w3.org/2000/svg" width="172" height="44" viewBox="0 0 172 44">
    <g fill="none" fill-rule="evenodd">
        <g>
            <circle cx="22" cy="22" r="21.5" fill="#FFF" stroke="#EBEBE7"/>
            <path fill="#858582" fill-rule="nonzero" d="M22 18a4 4 0 1 0 0-8 4 4 0 0 0 0 8zm0 2a6 6 0 1 1 0-12 6 6 0 0 1 0 12zM33 32a1 1 0 0 1-2 0c0-4.685-3.47-8-9-8-5.53 0-9 3.315-9 8a1 1 0 0 1-2 0c0-5.81 4.384-10 11-10s11 4.19 11 10z"/>
        </g>
        <g transform="translate(60)">
            <rect width="112" height="44" fill="#F8F8F6" rx="22"/>
            <path fill="#8C8C8C" d="M37.284 23.226h3.302v1.534h-5.018v1.898h5.018v1.456h-5.018V31H33.02v-2.886h-4.992v-1.456h4.992V24.76h-4.992v-1.534h3.25l1.274.104-5.772-9.49h3.068l3.198 6.032 1.222 2.6h.052l1.222-2.626 3.198-6.006h3.068l-5.798 9.49z"/>
            <path fill="#8C8C8C" d="M59.284 23.226h3.302v1.534h-5.018v1.898h5.018v1.456h-5.018V31H55.02v-2.886h-4.992v-1.456h4.992V24.76h-4.992v-1.534h3.25l1.274.104-5.772-9.49h3.068l3.198 6.032 1.222 2.6h.052l1.222-2.626 3.198-6.006h3.068l-5.798 9.49z" opacity=".25"/>
            <path fill="#8C8C8C" d="M81.284 23.226h3.302v1.534h-5.018v1.898h5.018v1.456h-5.018V31H77.02v-2.886h-4.992v-1.456h4.992V24.76h-4.992v-1.534h3.25l1.274.104-5.772-9.49h3.068l3.198 6.032 1.222 2.6h.052l1.222-2.626 3.198-6.006h3.068l-5.798 9.49z" opacity=".15"/>
        </g>
    </g>
</svg>
