<svg xmlns="http://www.w3.org/2000/svg" width="136" height="21" viewBox="0 0 136 21">
  <g fill="none" fill-rule="evenodd">
    <g transform="translate(62)">
      <path fill="#FFFFFF" stroke="#858582" stroke-width="2" d="M4,1 C2.34314575,1 1,2.34314575 1,4 L1,17 C1,18.6568542 2.34314575,20 4,20 L69.6155215,20 C70.3026854,20 70.9690216,19.7640969 71.5031162,19.3317346 C72.7908976,18.2892449 72.9897459,16.4001868 71.9472561,15.1124053 L63.8248295,5.07881948 C61.7363106,2.4988844 58.5944696,1 55.2751359,1 L4,1 Z"/>
      <path fill="#858582" fill-rule="nonzero" d="M49.0384761 1.27472113L50.9615239.725278872C52.2117339 5.10101388 53.7239483 7.52055689 55.3162278 8.0513167 57.2542291 8.69731713 61.8955924 9.691895 69.1788854 11.0161301L68.8211146 12.9838699C61.4377409 11.6414383 56.7457709 10.6360162 54.6837722 9.9486833 52.2760517 9.14610978 50.4549327 6.23231945 49.0384761 1.27472113zM9 5L11 5C12.6568542 5 14 6.34314575 14 8L14 10C14 11.6568542 12.6568542 13 11 13L9 13C7.34314575 13 6 11.6568542 6 10L6 8C6 6.34314575 7.34314575 5 9 5zM9 7C8.44771525 7 8 7.44771525 8 8L8 10C8 10.5522847 8.44771525 11 9 11L11 11C11.5522847 11 12 10.5522847 12 10L12 8C12 7.44771525 11.5522847 7 11 7L9 7zM19 5L21 5C22.6568542 5 24 6.34314575 24 8L24 10C24 11.6568542 22.6568542 13 21 13L19 13C17.3431458 13 16 11.6568542 16 10L16 8C16 6.34314575 17.3431458 5 19 5zM19 7C18.4477153 7 18 7.44771525 18 8L18 10C18 10.5522847 18.4477153 11 19 11L21 11C21.5522847 11 22 10.5522847 22 10L22 8C22 7.44771525 21.5522847 7 21 7L19 7zM29 5L31 5C32.6568542 5 34 6.34314575 34 8L34 10C34 11.6568542 32.6568542 13 31 13L29 13C27.3431458 13 26 11.6568542 26 10L26 8C26 6.34314575 27.3431458 5 29 5zM29 7C28.4477153 7 28 7.44771525 28 8L28 10C28 10.5522847 28.4477153 11 29 11L31 11C31.5522847 11 32 10.5522847 32 10L32 8C32 7.44771525 31.5522847 7 31 7L29 7zM39 5L41 5C42.6568542 5 44 6.34314575 44 8L44 10C44 11.6568542 42.6568542 13 41 13L39 13C37.3431458 13 36 11.6568542 36 10L36 8C36 6.34314575 37.3431458 5 39 5zM39 7C38.4477153 7 38 7.44771525 38 8L38 10C38 10.5522847 38.4477153 11 39 11L41 11C41.5522847 11 42 10.5522847 42 10L42 8C42 7.44771525 41.5522847 7 41 7L39 7z"/>
    </g>
    <path fill="#FFFFFF" stroke="#858582" stroke-width="2" d="M4,1 C2.34314575,1 1,2.34314575 1,4 L1,17 C1,18.6568542 2.34314575,20 4,20 L56,20 C57.6568542,20 59,18.6568542 59,17 L59,4 C59,2.34314575 57.6568542,1 56,1 L4,1 Z"/>
    <path fill="#858582" fill-rule="nonzero" d="M9,5 L11,5 C12.6568542,5 14,6.34314575 14,8 L14,10 C14,11.6568542 12.6568542,13 11,13 L9,13 C7.34314575,13 6,11.6568542 6,10 L6,8 C6,6.34314575 7.34314575,5 9,5 Z M9,7 C8.44771525,7 8,7.44771525 8,8 L8,10 C8,10.5522847 8.44771525,11 9,11 L11,11 C11.5522847,11 12,10.5522847 12,10 L12,8 C12,7.44771525 11.5522847,7 11,7 L9,7 Z M19,5 L21,5 C22.6568542,5 24,6.34314575 24,8 L24,10 C24,11.6568542 22.6568542,13 21,13 L19,13 C17.3431458,13 16,11.6568542 16,10 L16,8 C16,6.34314575 17.3431458,5 19,5 Z M19,7 C18.4477153,7 18,7.44771525 18,8 L18,10 C18,10.5522847 18.4477153,11 19,11 L21,11 C21.5522847,11 22,10.5522847 22,10 L22,8 C22,7.44771525 21.5522847,7 21,7 L19,7 Z M29,5 L31,5 C32.6568542,5 34,6.34314575 34,8 L34,10 C34,11.6568542 32.6568542,13 31,13 L29,13 C27.3431458,13 26,11.6568542 26,10 L26,8 C26,6.34314575 27.3431458,5 29,5 Z M29,7 C28.4477153,7 28,7.44771525 28,8 L28,10 C28,10.5522847 28.4477153,11 29,11 L31,11 C31.5522847,11 32,10.5522847 32,10 L32,8 C32,7.44771525 31.5522847,7 31,7 L29,7 Z M39,5 L41,5 C42.6568542,5 44,6.34314575 44,8 L44,10 C44,11.6568542 42.6568542,13 41,13 L39,13 C37.3431458,13 36,11.6568542 36,10 L36,8 C36,6.34314575 37.3431458,5 39,5 Z M39,7 C38.4477153,7 38,7.44771525 38,8 L38,10 C38,10.5522847 38.4477153,11 39,11 L41,11 C41.5522847,11 42,10.5522847 42,10 L42,8 C42,7.44771525 41.5522847,7 41,7 L39,7 Z M49,5 L51,5 C52.6568542,5 54,6.34314575 54,8 L54,10 C54,11.6568542 52.6568542,13 51,13 L49,13 C47.3431458,13 46,11.6568542 46,10 L46,8 C46,6.34314575 47.3431458,5 49,5 Z M49,7 C48.4477153,7 48,7.44771525 48,8 L48,10 C48,10.5522847 48.4477153,11 49,11 L51,11 C51.5522847,11 52,10.5522847 52,10 L52,8 C52,7.44771525 51.5522847,7 51,7 L49,7 Z"/>
  </g>
</svg>
