<svg xmlns="http://www.w3.org/2000/svg" width="148" height="123" viewBox="0 0 148 123">
  <g fill="none" fill-rule="evenodd">
    <rect width="102" height="31" x="22" y="51" fill="#FFFFFF"/>
    <path fill="#FFFFFF" stroke="#858582" stroke-width="2" d="M5.00707195,33.7380016 C2.56034268,34.8952384 0.999999997,37.359307 0.999999994,40.0659066 L0.999999877,119 C0.999999881,120.656854 2.34314564,122 3.99999988,122 L20,122 C21.6568542,122 23,120.656854 23,119 L23,57 C23,54.2385763 25.2385763,52 28,52 L120,52 C122.761424,52 125,54.2385763 125,57 L125,119 C125,120.656854 126.343146,122 128,122 L144,122 C145.656854,122 147,120.656854 147,119 L147,40.0659066 C147,37.359307 145.439657,34.8952384 142.992928,33.7380016 L75.2826834,1.7128859 C74.470683,1.32883162 73.529317,1.32883162 72.7173166,1.7128859 L5.00707195,33.7380016 Z"/>
    <polygon fill="#858582" fill-rule="nonzero" points="23 63 23 61 125 61 125 63"/>
    <polygon fill="#858582" fill-rule="nonzero" points="23 73 23 71 125 71 125 73"/>
    <polygon fill="#858582" fill-rule="nonzero" points="23 83 23 81 125 81 125 83"/>
    <rect width="14" height="14" x="36" y="108" fill="#FFFFFF" stroke="#858582" stroke-width="2" rx="4"/>
    <rect width="14" height="14" x="54" y="108" fill="#FFFFFF" stroke="#858582" stroke-width="2" rx="4"/>
    <rect width="14" height="14" x="98" y="108" fill="#FFFFFF" stroke="#858582" stroke-width="2" rx="4"/>
    <rect width="14" height="14" x="80" y="108" fill="#FFFFFF" stroke="#858582" stroke-width="2" rx="4"/>
    <rect width="14" height="14" x="98" y="90" fill="#FFFFFF" stroke="#858582" stroke-width="2" rx="4"/>
    <rect width="14" height="14" x="45" y="90" fill="#FFFFFF" stroke="#858582" stroke-width="2" rx="4"/>
    <g opacity=".399" transform="translate(50 24)">
      <path fill="#000000" d="M5.79194521,6.46023529 C5.61338724,6.41673181 5.46273121,6.38682361 5.3399726,6.3705098 C5.217214,6.354196 5.06655797,6.34603922 4.888,6.34603922 C4.18492799,6.34603922 3.62136285,6.54723982 3.19728767,6.94964706 C2.77321249,7.3520543 2.56117808,8.03178606 2.56117808,8.98886275 L2.56117808,12.0558431 L0,12.0558431 L0,4.19262745 L2.56117808,4.19262745 L2.56117808,5.46509804 C2.75089593,5.09531841 3.06615761,4.76904717 3.5069726,4.48627451 C3.94778759,4.20350185 4.45276428,4.06211765 5.02191781,4.06211765 C5.32323438,4.06211765 5.57990762,4.10562048 5.79194521,4.19262745 L5.79194521,6.46023529 Z M6.95471232,4.19262745 L9.51589041,4.19262745 L9.51589041,12.0558431 L6.95471232,12.0558431 L6.95471232,4.19262745 Z M10.7391781,4.19262745 L13.3003562,4.19262745 L13.3003562,5.33458824 C13.5235536,4.91042925 13.8611347,4.58143908 14.3131096,4.34760784 C14.7650844,4.11377661 15.3091201,3.99686275 15.9452329,3.99686275 C16.4697469,3.99686275 16.921715,4.07571163 17.3011507,4.23341176 C17.6805864,4.3911119 17.9818984,4.61134499 18.2050959,4.89411765 C18.461773,5.19864205 18.6319585,5.54938364 18.7156575,5.94635294 C18.7993566,6.34332225 18.8412055,6.82457234 18.8412055,7.39011765 L18.8412055,12.0558431 L16.2800274,12.0558431 L16.2800274,8.02635294 C16.2800274,7.46080763 16.1768001,7.00130896 15.9703425,6.64784314 C15.7638848,6.29437732 15.3928246,6.11764706 14.8571507,6.11764706 C14.3326366,6.11764706 13.9420469,6.29709624 13.6853699,6.656 C13.4286928,7.01490376 13.3003562,7.49887277 13.3003562,8.10792157 L13.3003562,12.0558431 L10.7391781,12.0558431 L10.7391781,4.19262745 Z M25.1340548,8.12423529 L28.2643836,12.0558431 L25.2177534,12.0558431 L22.740274,8.76047059 L22.740274,12.0558431 L20.1790959,12.0558431 L20.1790959,0.636235294 L22.740274,0.636235294 L22.740274,7.52062745 L25.2344931,4.19262745 L28.2811233,4.19262745 L25.1340548,8.12423529 Z M32.9476438,15.8243137 C32.2892113,15.8243137 31.7172764,15.7590595 31.2318219,15.628549 C30.7463674,15.4980386 30.3250885,15.2914001 29.9679726,15.0086275 C29.6443363,14.7476065 29.3792933,14.4240542 29.1728356,14.0379608 C28.9663779,13.6518674 28.8631507,13.1923687 28.8631507,12.659451 L31.4243288,12.659451 C31.4466485,13.1053617 31.6056743,13.4452276 31.9014109,13.6790588 C32.1971476,13.9128901 32.5570481,14.0298039 32.9811233,14.0298039 C33.4721577,14.0298039 33.8571675,13.9128901 34.1361644,13.6790588 C34.4151612,13.4452276 34.5546575,13.0237939 34.5546575,12.4147451 L34.5546575,10.7996863 C34.3314601,11.2238453 33.9994588,11.5501165 33.5586438,11.7785098 C33.1178288,12.0069031 32.5905327,12.121098 31.9767397,12.121098 C31.4410658,12.121098 30.9751481,12.0340924 30.5789726,11.8600784 C30.1827971,11.6860645 29.8731153,11.4576746 29.6499178,11.174902 C29.3932407,10.8703776 29.2258451,10.5305117 29.147726,10.1552941 C29.0696069,9.78007656 29.0305479,9.30970217 29.0305479,8.74415686 L29.0305479,4.19262745 L31.5749863,4.19262745 L31.5749863,8.22211765 C31.5749863,8.78766296 31.6782136,9.24716163 31.8846712,9.60062745 C32.0911289,9.95409327 32.4621891,10.1308235 32.997863,10.1308235 C33.5335369,10.1308235 33.9269165,9.95137434 34.1780137,9.59247059 C34.4291108,9.23356683 34.5546575,8.74959782 34.5546575,8.14054902 L34.5546575,4.19262745 L37.1158356,4.19262745 L37.1158356,12.2516078 C37.1158356,12.8715325 37.0153982,13.4098801 36.8145205,13.8666667 C36.6136428,14.3234533 36.34023,14.6932273 35.994274,14.976 C35.637158,15.2696485 35.2158791,15.4844438 34.7304246,15.6203922 C34.2449702,15.7563405 33.6507158,15.8243137 32.9476438,15.8243137 Z M42.5047397,10.1308235 C42.7948964,10.1308235 43.0571495,10.076445 43.2915068,9.96768627 C43.5258642,9.85892756 43.7267389,9.71482443 43.894137,9.53537255 C44.0615351,9.35592067 44.1926616,9.14384436 44.2875205,8.89913725 C44.3823795,8.65443015 44.4298082,8.39613208 44.4298082,8.12423529 C44.4298082,7.85233851 44.3823795,7.59675937 44.2875205,7.3574902 C44.1926616,7.11822103 44.0615351,6.90614472 43.894137,6.7212549 C43.7267389,6.53636509 43.5258642,6.38954303 43.2915068,6.28078431 C43.0571495,6.1720256 42.7948964,6.11764706 42.5047397,6.11764706 C42.214583,6.11764706 41.9523299,6.1720256 41.7179726,6.28078431 C41.4836152,6.38954303 41.2827405,6.53636509 41.1153424,6.7212549 C40.9479443,6.90614472 40.8168178,7.11822103 40.7219589,7.3574902 C40.6271,7.59675937 40.5796712,7.85233851 40.5796712,8.12423529 C40.5796712,8.39613208 40.6271,8.65443015 40.7219589,8.89913725 C40.8168178,9.14384436 40.9479443,9.35592067 41.1153424,9.53537255 C41.2827405,9.71482443 41.4836152,9.85892756 41.7179726,9.96768627 C41.9523299,10.076445 42.214583,10.1308235 42.5047397,10.1308235 Z M46.9909863,4.19262745 L46.9909863,12.0558431 L44.4298082,12.0558431 L44.4298082,10.9465098 C44.3293693,11.1313996 44.1954529,11.302692 44.0280548,11.4603922 C43.8606567,11.6180923 43.6681518,11.7540386 43.4505342,11.8682353 C43.2329167,11.9824319 42.995773,12.0748755 42.7390959,12.1455686 C42.4824188,12.2162618 42.2257456,12.2516078 41.9690685,12.2516078 C41.3887551,12.2516078 40.8558791,12.1455697 40.3704246,11.9334902 C39.8849702,11.7214107 39.4692711,11.4332044 39.123315,11.0688627 C38.777359,10.7045211 38.509526,10.2694927 38.3198082,9.76376471 C38.1300904,9.25803669 38.0352329,8.71153235 38.0352329,8.12423529 C38.0352329,7.53693824 38.1300904,6.9904339 38.3198082,6.48470588 C38.509526,5.97897786 38.777359,5.54394953 39.123315,5.17960784 C39.4692711,4.81526615 39.8849702,4.52705988 40.3704246,4.31498039 C40.8558791,4.1029009 41.3887551,3.99686275 41.9690685,3.99686275 C42.2257456,3.99686275 42.4824188,4.0322088 42.7390959,4.10290196 C42.995773,4.17359512 43.2329167,4.26875757 43.4505342,4.38839216 C43.6681518,4.50802674 43.8606567,4.64941095 44.0280548,4.81254902 C44.1954529,4.97568709 44.3293693,5.14426057 44.4298082,5.31827451 L44.4298082,4.19262745 L46.9909863,4.19262745 Z"/>
      <path fill="#BC002D" d="M6.58643835,1.58243137 C6.58643835,1.13652065 6.74267423,0.761308712 7.05515068,0.456784314 C7.36762713,0.152259915 7.75821683,0 8.2269315,0 C8.46128884,0 8.6789031,0.0407839059 8.87978082,0.122352941 C9.08065853,0.203921976 9.2564239,0.315397986 9.40708219,0.456784314 C9.55774048,0.598170642 9.67491739,0.766744119 9.75861643,0.962509804 C9.84231548,1.15827549 9.88416438,1.36491395 9.88416438,1.58243137 C9.88416438,1.7999488 9.84231548,2.00386833 9.75861643,2.19419608 C9.67491739,2.38452383 9.55774048,2.55309731 9.40708219,2.69992157 C9.2564239,2.84674583 9.08065853,2.96094077 8.87978082,3.0425098 C8.6789031,3.12407884 8.46128884,3.16486275 8.2269315,3.16486275 C7.99257417,3.16486275 7.77774983,3.12407884 7.58245205,3.0425098 C7.38715427,2.96094077 7.21417883,2.84674583 7.06352054,2.69992157 C6.91286226,2.55309731 6.79568535,2.38452383 6.7119863,2.19419608 C6.62828725,2.00386833 6.58643835,1.7999488 6.58643835,1.58243137 Z"/>
    </g>
  </g>
</svg>
